<?xml version="1.0" standalone="no"?>
<!DOCTYPE svg PUBLIC "-//W3C//DTD SVG 20010904//EN"
 "http://www.w3.org/TR/2001/REC-SVG-20010904/DTD/svg10.dtd">
<svg version="1.0" xmlns="http://www.w3.org/2000/svg"
 width="128.000000pt" height="128.000000pt" viewBox="0 0 128.000000 128.000000"
 preserveAspectRatio="xMidYMid meet">
<metadata>
Created by potrace 1.14, written by Peter Selinger 2001-2017
</metadata>
<g transform="translate(0.000000,128.000000) scale(0.100000,-0.100000)"
fill="#000000" stroke="none">
<path d="M759 1216 c-2 -2 -56 -18 -119 -34 -503 -133 -535 -143 -556 -184
-15 -30 -25 -108 -13 -108 13 0 17 -38 5 -51 -6 -6 -6 -9 -1 -6 6 3 15 -6 22
-19 6 -13 7 -22 2 -18 -5 3 -9 0 -9 -5 0 -6 5 -11 11 -11 5 0 7 -4 4 -10 -3
-5 1 -20 9 -32 19 -27 21 -41 4 -33 -7 4 -5 0 5 -8 10 -9 18 -18 18 -21 -1 -3
-1 -7 0 -8 0 -2 3 -16 5 -33 3 -16 9 -34 15 -40 15 -15 11 -38 -7 -31 -8 3
-12 2 -9 -4 3 -6 13 -10 22 -10 14 0 14 -2 -1 -19 -12 -13 -14 -21 -6 -26 6
-3 9 -1 8 6 -2 6 2 13 7 15 10 4 15 -12 17 -56 1 -8 5 -18 11 -21 5 -4 10 -21
12 -38 1 -17 8 -38 15 -46 10 -12 10 -15 0 -15 -9 0 -7 -6 5 -20 15 -17 16
-22 4 -37 -7 -10 -9 -15 -5 -11 5 4 15 0 22 -10 9 -13 10 -20 1 -31 -9 -12 -9
-13 1 -7 8 5 12 -1 12 -18 0 -14 6 -26 13 -26 8 0 7 -4 -3 -10 -13 -8 -13 -10
2 -10 20 0 31 -29 22 -56 -5 -15 -4 -16 4 -5 14 19 39 22 39 5 0 -9 -4 -11
-12 -4 -8 7 -12 5 -12 -5 0 -7 5 -13 11 -12 6 1 10 -3 9 -10 -1 -6 5 -10 15
-8 9 1 26 -5 37 -14 15 -12 17 -13 9 -1 -8 11 -6 19 7 32 16 15 18 15 24 0 6
-16 7 -16 20 1 11 15 14 15 18 3 4 -10 14 -13 29 -10 13 3 29 6 36 6 13 1 16
11 5 21 -3 4 -14 0 -23 -8 -14 -13 -17 -13 -17 0 0 8 4 12 8 9 4 -2 10 0 14 6
4 6 11 8 16 5 5 -4 9 -2 9 3 0 6 6 12 13 15 8 3 14 -1 14 -9 0 -7 -5 -10 -10
-7 -6 4 -7 1 -2 -7 5 -9 4 -11 -3 -6 -8 5 -10 1 -5 -10 4 -11 8 -13 11 -6 2 7
7 10 11 8 4 -3 8 1 9 9 1 8 3 22 4 30 1 8 5 12 9 10 3 -3 12 2 19 10 7 8 16
12 21 9 5 -3 9 1 9 8 0 10 2 10 9 -1 5 -8 18 -16 28 -17 16 -3 16 -1 -2 13
-20 15 -20 15 2 8 19 -5 22 -3 17 12 -5 14 -4 15 4 3 6 -8 8 -18 6 -22 -3 -4
0 -8 5 -8 6 0 11 7 11 15 0 9 7 18 15 21 8 4 13 9 10 13 -2 4 2 8 10 8 8 0 12
-4 10 -8 -3 -4 13 -6 35 -6 22 1 40 5 40 10 0 4 5 5 12 1 6 -4 8 -3 4 4 -3 6
-2 13 4 17 5 3 10 1 10 -6 0 -7 6 -4 14 7 10 13 11 23 4 31 -7 9 -7 13 0 13
13 0 24 -29 15 -42 -4 -7 -1 -8 6 -3 7 4 11 17 9 30 -3 13 0 22 8 22 7 0 11
-3 9 -7 -2 -3 14 -6 36 -5 l39 0 -23 18 -22 17 28 -10 c21 -7 27 -7 27 5 0 9
-6 12 -17 9 -14 -5 -15 -4 -4 4 16 11 44 5 36 -8 -3 -5 -1 -12 5 -15 6 -4 10
-3 9 2 -3 20 2 27 12 13 8 -12 9 -10 4 8 -5 16 -2 22 9 23 29 3 34 4 42 11 15
16 26 7 13 -10 -13 -15 -12 -16 4 -3 14 11 15 16 5 29 -11 13 -10 14 10 3 12
-7 20 -17 16 -23 -4 -6 -3 -8 3 -5 5 3 9 19 8 35 -1 18 3 29 11 29 7 0 11 -4
8 -9 -3 -4 2 -5 11 -2 12 5 13 10 4 20 -9 11 -6 16 12 23 13 5 18 10 11 10 -8
1 -10 6 -5 13 15 25 0 74 -57 182 -31 61 -89 172 -127 246 -39 74 -87 168
-108 208 -30 57 -46 77 -76 93 -34 17 -99 26 -110 15z m366 -836 c-3 -5 -12
-10 -18 -10 -7 0 -6 4 3 10 19 12 23 12 15 0z m-155 -70 c0 -5 -2 -10 -4 -10
-3 0 -8 5 -11 10 -3 6 -1 10 4 10 6 0 11 -4 11 -10z m-80 -53 c0 -6 -3 -7 -7
-4 -3 4 -16 -2 -28 -13 -19 -18 -23 -19 -28 -6 -3 9 -1 18 5 22 7 4 8 3 4 -4
-10 -16 2 -15 19 2 8 7 11 17 7 20 -3 4 1 4 11 0 9 -3 17 -11 17 -17z m-87
-22 c-3 -9 -8 -14 -10 -11 -3 3 -2 9 2 15 9 16 15 13 8 -4z m-420 -139 c5 -12
-2 -14 -31 -7 -2 1 0 6 3 11 9 14 22 12 28 -4z"/>
<path d="M118 653 c7 -3 16 -2 19 1 4 3 -2 6 -13 5 -11 0 -14 -3 -6 -6z"/>
<path d="M190 419 c0 -5 5 -7 10 -4 6 3 10 8 10 11 0 2 -4 4 -10 4 -5 0 -10
-5 -10 -11z"/>
<path d="M1095 339 c-6 -8 -4 -10 5 -4 10 6 12 4 6 -11 -6 -15 -5 -17 5 -6 9
9 10 15 2 23 -8 8 -13 7 -18 -2z"/>
<path d="M751 200 c-9 -5 -4 -7 13 -7 29 0 32 2 13 10 -8 3 -20 2 -26 -3z"/>
<path d="M616 149 c-21 -21 -13 -47 10 -28 7 6 12 15 9 19 -3 4 2 10 10 13 10
4 12 1 8 -10 -4 -11 -3 -14 6 -9 7 4 10 13 8 19 -5 17 -31 15 -51 -4z m14 -13
c0 -3 -4 -8 -10 -11 -5 -3 -10 -1 -10 4 0 6 5 11 10 11 6 0 10 -2 10 -4z"/>
<path d="M416 81 c-4 -6 -1 -11 6 -12 7 0 25 -2 40 -4 22 -3 25 -1 15 10 -7 8
-16 9 -23 4 -6 -5 -15 -4 -21 2 -8 8 -13 8 -17 0z"/>
</g>
</svg>
